<?xml version="1.0" encoding="UTF-8" standalone="no"?><!DOCTYPE svg PUBLIC "-//W3C//DTD SVG 1.1//EN" "http://www.w3.org/Graphics/SVG/1.1/DTD/svg11.dtd"><svg width="100%" height="100%" viewBox="0 0 2414 349" version="1.1" xmlns="http://www.w3.org/2000/svg" xmlns:xlink="http://www.w3.org/1999/xlink" xml:space="preserve" xmlns:serif="http://www.serif.com/" style="fill-rule:evenodd;clip-rule:evenodd;stroke-linejoin:round;stroke-miterlimit:2;"><rect id="Artboard1" x="0" y="0" width="2413.41" height="348.998" style="fill:none;"/><path id="path1195" d="M33.308,329.397l0,-65.682l232.625,-0c228.976,-0 232.711,-0.086 238.099,-5.474c9.959,-9.959 6.349,-41.934 -4.985,-44.151c-1.021,-0.2 -97.506,-1.124 -214.409,-2.053l-212.553,-1.689l-11.862,-8.332c-6.525,-4.582 -14.915,-13.819 -18.645,-20.526c-6.444,-11.584 -6.786,-14.451 -6.842,-57.35c-0.067,-50.874 1.974,-58.491 19.887,-74.219c19.272,-16.921 5.192,-16.095 274.168,-16.095l246.397,0l-0,62.056l-233.309,1.695l-233.31,1.695l-5.074,6.247c-3.896,4.796 -4.78,9.322 -3.804,19.48c2.333,24.274 -16.767,22.227 221.757,23.772c234.035,1.515 218.059,0.19 236.329,19.608c16.185,17.202 17.419,22.274 17.334,71.253c-0.071,40.909 -0.594,45.63 -6.312,56.924c-3.872,7.649 -10.969,15.519 -18.731,20.77c-11.862,8.026 -14.283,8.545 -47.739,10.252c-19.384,0.988 -132.843,1.802 -252.132,1.808l-216.889,0.011Z" style="fill-rule:nonzero;"/><path id="path1271" d="M876.232,329.397l0,-229.888l-238.098,-0l-0,-65.683l541.88,0l-0,62.086l-45.594,1.799c-25.077,0.989 -78.649,1.798 -119.05,1.798l-73.455,-0l-0,229.888l-65.683,0Z" style="fill-rule:nonzero;"/><path id="path1310" d="M1300.21,326.891c-26.658,-2.055 -39.828,-10.126 -50.074,-30.689l-7.179,-14.405l0.064,-101.407l0.064,-101.407l7.462,-13.658c5.492,-10.052 11.404,-16.013 22.393,-22.578l14.931,-8.921l496.966,0l-0,62.056l-233.31,1.695l-233.309,1.695l-4.789,5.895c-4.285,5.273 -4.79,13.317 -4.79,76.271c0,70.024 0.032,70.405 6.334,76.326l6.334,5.951l463.53,-0l-0,65.682l-231.941,-0.453c-127.568,-0.249 -241.277,-1.173 -252.686,-2.053l-0,0Z" style="fill-rule:nonzero;"/><path id="path1349" d="M1905.26,326.85c-11.289,-0.902 -24.465,-3.776 -29.279,-6.386c-9.768,-5.295 -20.816,-18.545 -25.303,-30.346c-4.698,-12.358 -4.018,-207.25 0.763,-218.661c5.769,-13.765 17.014,-25.504 30.51,-31.848c12.237,-5.752 13.615,-5.783 258.641,-5.783l246.339,0l0,62.058l-231.941,1.677l-231.941,1.676l-6.158,7.131c-6.016,6.966 -6.157,8.635 -6.157,72.796c-0,68.501 1.525,78.663 12.438,82.851c2.436,0.935 107.779,1.7 234.094,1.7l229.665,-0l0,65.682l-230.573,-0.453c-126.815,-0.249 -239.809,-1.192 -251.098,-2.094Z" style="fill-rule:nonzero;"/></svg>