<?xml version="1.0" encoding="UTF-8" standalone="no"?>
<!DOCTYPE svg PUBLIC "-//W3C//DTD SVG 1.1//EN" "http://www.w3.org/Graphics/SVG/1.1/DTD/svg11.dtd">
<svg width="100%" height="100%" viewBox="0 0 5134 1587" version="1.1" xmlns="http://www.w3.org/2000/svg" xmlns:xlink="http://www.w3.org/1999/xlink" xml:space="preserve" xmlns:serif="http://www.serif.com/" style="fill-rule:evenodd;clip-rule:evenodd;stroke-linejoin:round;stroke-miterlimit:2;">
    <g transform="matrix(1,0,0,1,-328.504,-328.634)">
        <g id="Untitled">
            <path d="M2747.71,1833.63L2747.71,1767.95L2980.34,1767.95C3209.32,1767.95 3213.05,1767.87 3218.44,1762.48C3228.4,1752.52 3224.79,1720.54 3213.45,1718.33C3212.43,1718.13 3115.95,1717.2 2999.04,1716.27L2786.49,1714.58L2774.63,1706.25C2768.1,1701.67 2759.71,1692.43 2755.98,1685.73C2749.54,1674.14 2749.2,1671.28 2749.14,1628.38C2749.08,1577.5 2751.12,1569.89 2769.03,1554.16C2788.3,1537.24 2774.22,1538.06 3043.2,1538.06L3289.59,1538.06L3289.59,1600.12L3056.29,1601.81L2822.98,1603.51L2817.9,1609.76C2814.01,1614.55 2813.12,1619.08 2814.1,1629.24C2816.43,1653.51 2797.33,1651.46 3035.86,1653.01C3269.89,1654.52 3253.91,1653.2 3272.18,1672.62C3288.37,1689.82 3289.6,1694.89 3289.52,1743.87C3289.45,1784.78 3288.92,1789.5 3283.21,1800.79C3279.33,1808.44 3272.24,1816.31 3264.47,1821.56C3252.61,1829.59 3250.19,1830.11 3216.74,1831.81C3197.35,1832.8 3083.89,1833.62 2964.6,1833.62L2747.71,1833.63Z" style="fill-rule:nonzero;"/>
            <path d="M3590.64,1833.63L3590.64,1603.75L3352.54,1603.75L3352.54,1538.06L3894.42,1538.06L3894.42,1600.15L3848.83,1601.95C3823.75,1602.94 3770.18,1603.75 3729.78,1603.75L3656.32,1603.75L3656.32,1833.63L3590.64,1833.63Z" style="fill-rule:nonzero;"/>
            <path d="M4014.62,1831.13C3987.96,1829.07 3974.79,1821 3964.54,1800.44L3957.37,1786.03L3957.43,1684.63L3957.49,1583.22L3964.96,1569.56C3970.45,1559.51 3976.36,1553.55 3987.35,1546.98L4002.28,1538.06L4499.25,1538.06L4499.25,1600.12L4265.94,1601.81L4032.63,1603.51L4027.84,1609.4C4023.55,1614.68 4023.05,1622.72 4023.05,1685.67C4023.05,1755.7 4023.08,1756.08 4029.38,1762L4035.72,1767.95L4499.25,1767.95L4499.25,1833.63L4267.3,1833.18C4139.74,1832.93 4026.03,1832.01 4014.62,1831.13Z" style="fill-rule:nonzero;"/>
            <path d="M4619.66,1831.09C4608.37,1830.18 4595.2,1827.31 4590.38,1824.7C4580.62,1819.41 4569.57,1806.16 4565.08,1794.36C4560.38,1782 4561.06,1587.11 4565.84,1575.69C4571.61,1561.93 4582.86,1550.19 4596.35,1543.85C4608.59,1538.09 4609.97,1538.06 4855,1538.06L5101.33,1538.06L5101.33,1600.12L4869.39,1601.8L4637.45,1603.47L4631.29,1610.6C4625.28,1617.57 4625.14,1619.24 4625.14,1683.4C4625.14,1751.9 4626.66,1762.06 4637.58,1766.25C4640.01,1767.19 4745.35,1767.95 4871.67,1767.95L5101.33,1767.95L5101.33,1833.63L4870.76,1833.18C4743.95,1832.93 4630.95,1831.99 4619.66,1831.09Z" style="fill-rule:nonzero;"/>
            <path d="M5148.01,1826.36C5144.36,1821.72 5142.89,1817.02 5143.94,1813.36C5146.11,1805.86 5155.3,1798.06 5161.97,1798.06C5168.67,1798.06 5180.7,1809.89 5180.7,1816.48C5180.7,1833.35 5158.73,1839.99 5148.01,1826.36Z" style="fill-rule:nonzero;"/>
            <path d="M5208.07,1833.63L5208.07,1647.53L5238.17,1647.53L5238.17,1681.29C5238.17,1699.85 5238.89,1715.76 5239.76,1716.63C5240.64,1717.51 5245.64,1715.31 5250.88,1711.76C5274.17,1695.96 5302.56,1702.09 5316.58,1725.94C5323.75,1738.15 5324.38,1741.42 5324.38,1766.58C5324.38,1789.69 5323.43,1795.74 5318.25,1805.42C5308.69,1823.31 5295.49,1831.85 5275.48,1833.09C5260.94,1833.99 5257.31,1833.18 5248.31,1827.04C5235.9,1818.57 5235.44,1818.5 5235.44,1825.13C5235.44,1831.22 5230.32,1833.63 5217.42,1833.63L5208.07,1833.63ZM5281.51,1807.24C5290.63,1801.33 5295.65,1787.19 5295.64,1767.36C5295.63,1729.17 5271.55,1712.99 5246.32,1734.22L5238.17,1741.07L5238.17,1771.97C5238.17,1805.27 5238.93,1807.2 5253.73,1811.75C5262.84,1814.55 5272.68,1812.95 5281.51,1807.24Z" style="fill-rule:nonzero;"/>
            <path d="M5384.59,1830.5C5362.57,1822.36 5349.29,1803.62 5346.08,1776.16C5341.47,1736.73 5364.79,1706.41 5402.32,1703C5431.74,1700.34 5453.07,1716.68 5459.8,1747.06C5465.1,1770.97 5465.61,1770.69 5416.89,1770.69L5374.29,1770.69L5375.85,1782.32C5378.17,1799.6 5392.26,1811.76 5409.86,1811.68C5417.04,1811.65 5428.37,1809.14 5435.06,1806.11L5447.21,1800.59L5453.87,1807.25C5461.8,1815.18 5460.45,1818.12 5445.3,1825.92C5431.98,1832.77 5397.73,1835.35 5384.59,1830.5ZM5435.22,1747.64C5435.22,1743.99 5432.03,1737.21 5428.14,1732.58C5421.89,1725.16 5419.36,1724.16 5406.76,1724.16C5396.03,1724.16 5390.93,1725.59 5386.31,1729.9C5380.53,1735.28 5375.01,1745.94 5375.01,1751.71C5375.01,1753.14 5388.27,1754.27 5405.12,1754.27C5435.15,1754.27 5435.22,1754.25 5435.22,1747.64Z" style="fill-rule:nonzero;"/>
            <path d="M5448.88,1568.07C5448.85,1537.77 5444.09,1489.69 5439.28,1471.01C5433.22,1447.5 5418.6,1418.26 5405.76,1403.96C5399.67,1397.19 5385.4,1385.49 5374.05,1377.96C5355.21,1365.48 5341.14,1349.34 5345.39,1345.09C5348.84,1341.64 5391.05,1370.41 5409.45,1388.75C5431.41,1410.63 5442.78,1431.14 5452.02,1465.54C5456.84,1483.5 5457.95,1495.64 5458.19,1533.16C5458.45,1573.3 5457.9,1579.47 5453.69,1583.69C5449.13,1588.27 5448.9,1587.53 5448.88,1568.07Z" style="fill-rule:nonzero;"/>
            <path d="M4926.18,1426.75C4842.94,1420.79 4780.43,1403.35 4727.77,1371.39C4700.5,1354.85 4649.77,1316.08 4649.77,1311.79C4649.77,1305.16 4662.69,1308.06 4676.15,1317.7C4760.79,1378.35 4807.55,1398.08 4890.6,1408.2C4931.84,1413.23 5061.27,1413.92 5136.91,1409.52C5185.97,1406.67 5198.81,1405.69 5301.01,1397.05C5327.3,1394.83 5351.48,1393.01 5354.76,1393.01C5360.81,1393.01 5374.78,1402.41 5372.27,1404.79C5371.52,1405.5 5346.89,1408.09 5317.54,1410.54C5288.19,1412.99 5251.86,1416.23 5236.8,1417.74C5157.78,1425.65 4982.03,1430.75 4926.18,1426.75Z" style="fill-rule:nonzero;"/>
            <path d="M5058.91,1242.41C4966.48,1225.6 4837.42,1203.68 4714.08,1183.83C4675.32,1177.59 4606.36,1167.7 4549.88,1160.28C4508.2,1154.8 4369.49,1141.38 4326.83,1138.7C4285.78,1136.12 4225.09,1133.19 4120.2,1128.74C4080.24,1127.05 4053.15,1121.33 4053.15,1114.6C4053.15,1111.56 4059.41,1111.15 4086.68,1112.41C4105.12,1113.26 4152.22,1115.21 4191.36,1116.75C4430.55,1126.15 4601.51,1146.83 4968.6,1210.77C5090.01,1231.92 5095.21,1233.19 5103.92,1243.68C5107.05,1247.45 5106.2,1247.93 5096.88,1247.67C5091.05,1247.51 5073.97,1245.14 5058.91,1242.41Z" style="fill-rule:nonzero;"/>
            <path d="M4819.45,1082.33C4784.52,1071.39 4593.07,1013.35 4575.88,1008.49C4569.1,1006.57 4546.93,1000.05 4526.61,994.002C4436.99,967.319 4344.64,940.415 4276.2,921.046C4137.17,881.703 4146.75,884.355 4027.84,852.31C4007.89,846.936 3981.11,839.62 3968.31,836.053C3892.85,815.013 3658.56,755.916 3420.96,697.992C3340.91,678.477 3308.75,667.747 3308.75,660.556C3308.75,658.503 3310.25,656.824 3312.09,656.824C3316.12,656.824 3479.76,696.304 3631.69,733.932C3763.3,766.528 3981.42,823.269 4101.05,856.031C4128.14,863.451 4153.45,870.272 4157.29,871.19C4163.5,872.677 4168.83,868.08 4206.29,828.925C4229.4,804.762 4256.01,779.167 4265.41,772.048C4289.72,753.645 4318.83,739.776 4347.36,733.011C4370.43,727.538 4381.57,727.065 4523.88,725.522L4675.77,723.875L4690.29,714.908C4708.25,703.823 4738.03,693.638 4764.88,689.394C4787.91,685.756 5029.97,687.655 5143.45,692.365C5198.01,694.629 5210.23,695.891 5217.34,699.992C5226.82,705.464 5237.17,723.901 5239.58,739.611L5241.16,749.874L5300.1,749.874C5343.45,749.874 5358.77,750.71 5357.99,753.035C5355.24,761.282 5332.94,763.07 5211.36,764.789C5043.31,767.166 4929.91,771.196 4897.88,775.93C4859.18,781.648 4851.09,786.883 4812.43,831.209C4777.81,870.91 4759.2,886.263 4759.25,875.081C4759.27,870.892 4808.89,812.162 4831.63,789.411C4861.5,759.519 4878.34,757.078 5087.65,752.286C5163.66,750.546 5226.24,748.801 5226.72,748.409C5230.05,745.65 5222.26,725.236 5215.17,718.138L5206.7,709.664L5164.28,707.875C5070.79,703.931 4848.44,700.037 4809.54,701.661C4724.07,705.232 4689.99,721.911 4610.38,799.136C4569.06,839.216 4466.4,951.488 4466.4,956.592C4466.4,958.322 4479.64,963.711 4495.82,968.569C4512.01,973.427 4536.94,980.94 4551.24,985.265C4565.54,989.589 4620.96,1006.21 4674.4,1022.19C4822.69,1066.55 4831.46,1069.46 4843.83,1078.42C4850.1,1082.96 4854.5,1087.87 4853.6,1089.33C4851.57,1092.62 4853.66,1093.05 4819.45,1082.33ZM4493.89,907.981C4536.45,860.211 4628.79,765.988 4651.14,747.529L4664.82,736.226L4532.09,736.216C4452.3,736.21 4389.58,737.405 4374.84,739.212C4343.86,743.012 4309.05,755.219 4284.41,770.925C4263.97,783.953 4177.98,868.462 4179.75,873.779C4180.29,875.385 4219.45,887.477 4266.78,900.65C4314.1,913.823 4373.76,930.728 4399.35,938.217C4424.94,945.706 4447.78,951.96 4450.1,952.115C4452.42,952.269 4472.12,932.409 4493.89,907.981Z" style="fill-rule:nonzero;"/>
            <path d="M2750.45,1111.47C2750.45,1101.96 2756.53,1100.18 2789.06,1100.18C2800.88,1100.18 2825.67,1098.95 2844.13,1097.45C2862.6,1095.95 2906.65,1093.49 2942.03,1092C3064.06,1086.84 3181.55,1081.22 3199.28,1079.68C3209.07,1078.84 3250.32,1076.35 3290.96,1074.16C3468.98,1064.55 3514.5,1061.44 3571.48,1055C3590.3,1052.87 3613.08,1050.4 3622.11,1049.52C3648.66,1046.91 3694.82,1039.88 3711.06,1035.96C3719.34,1033.97 3738.42,1029.58 3753.48,1026.21C3788.89,1018.28 3824.32,1001.8 3831.59,989.889C3834.52,985.072 3836.93,978.403 3836.94,975.069C3836.97,957.086 3792.5,927.994 3716.53,896.304C3655.77,870.958 3630.98,861.746 3565.31,840.109C3525.04,826.841 3488.31,815.157 3483.71,814.144C3479.1,813.132 3472.02,810.58 3467.98,808.474C3463.95,806.367 3459.41,804.637 3457.91,804.63C3456.4,804.623 3437.93,799.214 3416.85,792.61C3342.61,769.343 3251.88,743.002 3214.33,733.815C3208.31,732.342 3173.83,723.757 3137.7,714.738C3101.58,705.718 3064.63,696.885 3055.6,695.107C3046.57,693.33 3034.87,690.871 3029.6,689.643C3024.33,688.415 3000.32,683.567 2976.23,678.87C2952.15,674.173 2923.83,668.503 2913.29,666.271C2902.75,664.038 2867.65,657.924 2835.29,652.683C2750.58,638.964 2750.45,638.929 2750.45,628.835C2750.45,620.568 2750.48,620.553 2763.45,622.026C2779.94,623.899 2864.03,638.291 2910.55,647.203C2930.12,650.952 2962.14,657.089 2981.71,660.842C3075.68,678.863 3190.02,706.583 3296.44,737.142C3365.97,757.108 3398.44,766.67 3418.22,773.011C3429.51,776.628 3470.15,789.645 3508.54,801.936C3764.67,883.956 3847.8,920.125 3867.09,957.939C3870.15,963.938 3872.53,974.026 3872.53,981.014C3872.53,991.469 3870.94,995.187 3862.49,1004.54C3852.22,1015.91 3846.09,1019.25 3815.05,1030.39C3765.69,1048.11 3672.68,1064.65 3576.96,1072.75C3558.14,1074.34 3539.99,1076.25 3536.62,1077.01C3529.02,1078.7 3425.48,1085.27 3323.8,1090.51C3281.66,1092.68 3240.4,1095.18 3232.12,1096.06C3216.51,1097.72 3113.74,1102.82 2955.71,1109.76C2905.28,1111.98 2846.17,1115.02 2824.34,1116.53C2802.52,1118.03 2776.96,1119.27 2767.56,1119.3C2750.53,1119.34 2750.45,1119.3 2750.45,1111.47Z" style="fill-rule:nonzero;"/>
            <path d="M1935.77,1116.8C1907.78,1115.48 1901.2,1114.32 1894.72,1109.51C1874.77,1094.71 1868.48,1072.73 1875.76,1043.25C1881.1,1021.6 1919.66,940.681 2009.64,762.32C2066.35,649.896 2077.35,629.89 2086.35,622.745L2096.87,614.404L2352.5,613.665L2608.14,612.926L2608.14,626.72L2358.41,626.73C2115.2,626.74 2108.45,626.88 2099.88,632.104C2095.04,635.055 2087.73,642.747 2083.63,649.199C2072.06,667.431 1899.51,1016.67 1893.61,1033.8C1887.73,1050.9 1886.77,1074.51 1891.53,1084.96C1893.27,1088.77 1897.88,1094.07 1901.79,1096.72C1908.47,1101.26 1929.69,1101.59 2258.52,1102.27L2608.14,1103L2608.14,1119.34L2288.62,1118.85C2112.89,1118.59 1954.1,1117.66 1935.77,1116.8Z" style="fill-rule:nonzero;"/>
            <path d="M447.829,1781.42C446.902,1776.79 443.08,1739.53 439.335,1698.63C423.361,1524.19 423.346,1409.04 439.289,1347.86C453.522,1293.23 483.804,1264.07 539.391,1251.47C558.147,1247.22 636.521,1246.81 1583.9,1246L2608.14,1245.12L2608.14,1258.37L1586.64,1259.67C640.166,1260.89 563.635,1261.32 544.617,1265.61C473.736,1281.59 451.953,1315.6 443.316,1423.76C439.536,1471.1 443.649,1585.72 452.713,1685.67C456.242,1724.58 458.714,1759.32 458.207,1762.87C455.157,1784.21 453.814,1789.85 451.785,1789.85C450.536,1789.85 448.756,1786.05 447.829,1781.42Z" style="fill-rule:nonzero;"/>
            <path d="M2671.74,1912.56C2669.06,1909.88 2668.35,1744.35 2668.35,1123.09C2668.35,412.124 2668.76,336.602 2672.65,332.713C2677.92,327.444 2680.45,327.316 2684.44,332.119C2686.7,334.849 2687.33,543.921 2686.83,1125.1C2686.14,1913.55 2686.13,1914.37 2680.63,1915.16C2677.6,1915.59 2673.6,1914.42 2671.74,1912.56Z" style="fill-rule:nonzero;"/>
            <path d="M577.458,1231.93C577.458,1226.32 600.215,1204.43 610.203,1200.43C662.538,1179.49 933.606,1155.78 1425.86,1129.09C1522.94,1123.83 1611.84,1118.84 1623.4,1118.01C1647.68,1116.27 1652.55,1119.44 1637.37,1127.08C1629.87,1130.86 1618.3,1132.79 1595.54,1134.06C1578.23,1135.03 1507.41,1138.91 1438.17,1142.7C1023.66,1165.34 756.504,1186.33 654.994,1204.23C618.237,1210.71 613.59,1212.36 597.44,1224.69C585.3,1233.96 577.458,1236.8 577.458,1231.93Z" style="fill-rule:nonzero;"/>
            <path d="M1735.11,1089.01C1735.11,1087.09 1789.78,978.902 1856.59,848.593C2020.45,529.026 2009.32,551.794 2004.2,546.672C2000.61,543.088 2000.48,540.885 2003.34,532.225C2009.18,514.53 2023.01,502.015 2042.37,496.908C2057.75,492.852 2591.38,413.252 2603.19,413.252C2606.58,413.252 2608.14,415.309 2608.14,419.789C2608.14,425.013 2606.35,426.647 2599.24,427.92C2594.35,428.797 2472.12,446.867 2327.62,468.077C2051.07,508.669 2045.66,509.549 2033.22,515.983C2026.35,519.535 2019.73,527.454 2019.73,532.121C2019.73,532.973 2152.13,533.67 2313.94,533.67L2608.14,533.67L2608.14,550.09L2025.63,550.09L1956.42,684.876C1918.35,759.008 1856.98,878.524 1820.03,950.466C1763.71,1060.15 1751.43,1082.18 1743.99,1086.89C1737.89,1090.74 1735.11,1091.41 1735.11,1089.01Z" style="fill-rule:nonzero;"/>
            <path d="M333.537,1796.28C330.742,1792.91 329.562,1779.3 328.925,1743.08C327.815,1679.88 325.263,1683.11 376.306,1683.11L413.252,1683.11L413.252,1689.54C413.252,1695.77 412.382,1696.02 383.832,1697.72C344.874,1700.05 344.818,1700.11 344.875,1742.94C344.898,1760.46 345.846,1776.26 346.983,1778.04C351.106,1784.53 364.961,1787.11 395.641,1787.11L426.936,1787.11L426.936,1800.79L382.114,1800.79C343.797,1800.79 336.748,1800.14 333.537,1796.28Z" style="fill-rule:nonzero;"/>
            <path d="M1427.39,1827.25C1423.57,1822.24 1412.96,1799.77 1403.82,1777.31C1363.78,1678.92 1316.67,1609.4 1271.74,1582.34C1239.52,1562.95 1200.94,1554.51 1113.86,1547.79C971.46,1536.82 801.313,1541.45 718.994,1558.55C668.884,1568.96 643.15,1593.6 613.211,1659.84C604.364,1679.42 592.944,1694.06 586.525,1694.06C581.635,1694.06 581.393,1694.9 595.177,1663.81C611.967,1625.95 630.5,1595.62 646.963,1579.07C673.646,1552.25 705.238,1542.42 793.663,1533.46C859.632,1526.78 1047.73,1526.75 1123.61,1533.42C1237.1,1543.4 1270.3,1554.89 1315.02,1599.67C1343.27,1627.97 1366.38,1662.8 1393.09,1717.32C1411.58,1755.05 1439.54,1825.05 1439.54,1833.59C1439.54,1839.01 1434.25,1836.25 1427.39,1827.25Z" style="fill-rule:nonzero;"/>
            <path d="M1634.03,1831.02L1597.27,1829.53L1608.66,1822L1620.05,1814.48L2608.14,1814.48L2608.14,1822.29C2608.14,1829.94 2607.75,1830.14 2589.67,1831.85C2567.63,1833.93 1686.99,1833.17 1634.03,1831.02Z" style="fill-rule:nonzero;"/>
        </g>
    </g>
</svg>
